<svg xmlns="http://www.w3.org/2000/svg" xmlns:xlink="http://www.w3.org/1999/xlink" viewBox="0 0 461.82 418.95"><defs><style>.cls-1{fill:#193a42;}.cls-2{isolation:isolate;}.cls-3{clip-path:url(#clip-path);}.cls-4{clip-path:url(#clip-path-2);}.cls-5{clip-path:url(#clip-path-3);}.cls-6{fill:#5cc1db;}.cls-7{clip-path:url(#clip-path-4);}.cls-8{clip-path:url(#clip-path-5);}.cls-9{clip-path:url(#clip-path-6);}.cls-10{clip-path:url(#clip-path-7);}.cls-11{clip-path:url(#clip-path-8);}</style><clipPath id="clip-path"><path class="cls-1" d="M408.27,15,451,64.35c-7.38-8.52-18.71-13.67-32.74-13.67L375.53,1.31C389.55,1.31,400.89,6.47,408.27,15Z"/></clipPath><clipPath id="clip-path-2"><path class="cls-1" d="M408.27,15,451,64.35c8.9,10.28,12,25.46,7.14,42.4L415.41,57.38C420.3,40.44,417.17,25.26,408.27,15Z"/></clipPath><clipPath id="clip-path-3"><path class="cls-1" d="M409.38,14l42.76,49.37c9.12,10.52,12.33,26.07,7.33,43.38L416.72,57.38C421.72,40.07,418.5,24.53,409.38,14Z"/></clipPath><clipPath id="clip-path-4"><path class="cls-1" d="M171.44,407.76q-21.39-24.67-42.76-49.36l15-23.49,42.75,49.36Z"/></clipPath><clipPath id="clip-path-5"><path class="cls-1" d="M282.49,341.56l42.75,49.37c-6.65.95-133,19.14-159.69,26.07l-42.76-49.36C149.51,360.7,275.84,342.52,282.49,341.56Z"/></clipPath><clipPath id="clip-path-6"><path class="cls-1" d="M282.32,342.86l42.76,49.36c-1.35.2-133.22,19.22-159.54,26L122.78,368.9C149.11,362.07,281,343.05,282.32,342.86Z"/></clipPath><clipPath id="clip-path-7"><path class="cls-1" d="M356.66,278.84l42.75,49.37c-8.94,31-38.6,57.15-56.38,59.93l-17.79,2.79-42.75-49.37,17.78-2.78C318.06,336,347.72,309.81,356.66,278.84Z"/></clipPath><clipPath id="clip-path-8"><path class="cls-1" d="M358,278.84l42.75,49.37c-4.17,14.45-13.17,29.12-25.34,41.3-11,11-23.17,18.47-32.53,19.93l-42.75-49.37c9.36-1.46,21.52-8.91,32.52-19.93C344.81,308,353.8,293.3,358,278.84Z"/></clipPath></defs><g id="Livello_2" data-name="Livello 2"><g id="Livello_2-2" data-name="Livello 2"><g class="cls-2"><polygon class="cls-1" points="375.53 1.31 418.28 50.68 140.75 50.68 97.99 1.31 375.53 1.31"/><polygon class="cls-1" points="97.99 1.31 140.75 50.68 44.45 384.27 1.69 334.91 97.99 1.31"/><polygon class="cls-1" points="144.29 66.39 187.04 115.76 128.31 319.2 85.56 269.83 144.29 66.39"/><polygon class="cls-1" points="145.22 67.7 187.98 117.07 130.01 317.88 87.25 268.52 145.22 67.7"/><g class="cls-2"><path class="cls-1" d="M408.27,15,451,64.35c-7.38-8.52-18.71-13.67-32.74-13.67L375.53,1.31C389.55,1.31,400.89,6.47,408.27,15Z"/><g class="cls-3"><g class="cls-2"><path class="cls-1" d="M408.27,15,451,64.35c-7.38-8.52-18.71-13.67-32.74-13.67L375.53,1.31c14,0,25.36,5.16,32.74,13.67"/></g></g></g><polygon class="cls-1" points="249.16 125.28 291.92 174.65 273.13 239.72 230.38 190.35 249.16 125.28"/><polygon class="cls-1" points="165.59 269.83 208.35 319.2 128.31 319.2 85.56 269.83 165.59 269.83"/><g class="cls-2"><path class="cls-1" d="M408.27,15,451,64.35c8.9,10.28,12,25.46,7.14,42.4L415.41,57.38C420.3,40.44,417.17,25.26,408.27,15Z"/><g class="cls-4"><g class="cls-2"><path class="cls-1" d="M408.27,15,451,64.35c8.9,10.28,12,25.46,7.14,42.4L415.41,57.38c4.89-16.94,1.76-32.12-7.14-42.4"/></g></g></g><g class="cls-2"><path class="cls-1" d="M409.38,14l42.76,49.37c9.12,10.52,12.33,26.07,7.33,43.38L416.72,57.38C421.72,40.07,418.5,24.53,409.38,14Z"/><g class="cls-5"><g class="cls-2"><path class="cls-1" d="M409.38,14l42.76,49.37c9.12,10.52,12.33,26.07,7.33,43.38L416.72,57.38c5-17.31,1.78-32.85-7.34-43.38"/></g></g></g><polygon class="cls-1" points="412.81 66.39 455.56 115.76 187.04 115.76 144.29 66.39 412.81 66.39"/><polygon class="cls-1" points="415.41 57.38 458.16 106.75 455.56 115.76 412.81 66.39 415.41 57.38"/><polygon class="cls-1" points="413.74 67.7 456.49 117.07 187.98 117.07 145.22 67.7 413.74 67.7"/><polygon class="cls-1" points="416.72 57.38 459.47 106.75 456.49 117.07 413.74 67.7 416.72 57.38"/><polygon class="cls-1" points="124.1 334.91 166.85 384.27 44.45 384.27 1.69 334.91 124.1 334.91"/><polygon class="cls-1" points="165.59 269.83 208.35 319.2 166.85 384.27 124.1 334.91 165.59 269.83"/><path class="cls-6" d="M4.35,332.91,99.5,3.31h276c13.91,0,25.53,5.27,32.72,14.84,7.65,10.16,9.5,23.89,5.24,38.67l-2.19,7.57H142.79L82.9,271.83h79L123,332.91Z"/><path class="cls-1" d="M375.53,5.31c13.26,0,24.32,5,31.13,14,7.25,9.64,9,22.76,4.9,36.92l-1.76,6.12H141.28l-.83,2.89L81.72,268.72l-1.48,5.11H158.3l-36.39,57.08H7L101,5.31H375.53m0-4H98L1.69,334.91H124.1l41.49-65.08h-80L144.29,66.39H412.81l2.6-9c8.94-31-8.92-56.07-39.88-56.07Z"/><polygon class="cls-1" points="124.66 336.22 167.41 385.59 42.75 385.59 0 336.22 124.66 336.22"/><polygon class="cls-1" points="167.83 268.52 210.58 317.88 167.41 385.59 124.66 336.22 167.83 268.52"/><path class="cls-1" d="M413.74,67.7H145.22l-58,200.82h80.58l-43.17,67.7H0L97.06,0H375.91c31.64,0,49.94,25.74,40.81,57.38ZM165.59,269.83h-80L144.29,66.39H412.81l2.6-9c8.94-31-8.92-56.07-39.88-56.07H98L1.69,334.91H124.1l41.49-65.08"/><polygon class="cls-1" points="185.15 269.83 227.9 319.2 186.41 384.27 143.66 334.91 185.15 269.83"/><polygon class="cls-1" points="317.13 190.35 359.88 239.72 273.13 239.72 230.38 190.35 317.13 190.35"/><polygon class="cls-1" points="315.43 191.67 358.19 241.03 271.43 241.03 228.68 191.67 315.43 191.67"/><g class="cls-2"><path class="cls-1" d="M171.44,407.76q-21.39-24.67-42.76-49.36l15-23.49,42.75,49.36Z"/><g class="cls-7"><g class="cls-2"><path class="cls-1" d="M143.66,334.91l42.75,49.36-18.1,28.4L165.55,417l-42.76-49.36,2.76-4.34,18.11-28.39"/></g></g></g><polygon class="cls-1" points="400.99 125.28 443.74 174.65 291.92 174.65 249.16 125.28 400.99 125.28"/><polygon class="cls-1" points="122.78 368.9 165.53 418.27 162.91 418.95 120.15 369.58 122.78 368.9"/><polygon class="cls-1" points="294.18 269.83 336.94 319.2 227.9 319.2 185.15 269.83 294.18 269.83"/><polygon class="cls-1" points="317.13 190.35 359.88 239.72 336.94 319.2 294.18 269.83 317.13 190.35"/><g class="cls-2"><path class="cls-1" d="M282.49,341.56l42.75,49.37c-6.65.95-133,19.14-159.69,26.07l-42.76-49.36C149.51,360.7,275.84,342.52,282.49,341.56Z"/><g class="cls-8"><g class="cls-2"><path class="cls-1" d="M282.49,341.56l42.75,49.37c-6.65.95-133,19.14-159.69,26.07l-42.76-49.36c26.72-6.94,153-25.12,159.7-26.08"/></g></g></g><g class="cls-2"><path class="cls-1" d="M282.32,342.86l42.76,49.36c-1.35.2-133.22,19.22-159.54,26L122.78,368.9C149.11,362.07,281,343.05,282.32,342.86Z"/><g class="cls-9"><g class="cls-2"><path class="cls-1" d="M282.32,342.86l42.76,49.36c-1.35.2-133.22,19.22-159.54,26L122.78,368.9c26.33-6.83,158.2-25.85,159.54-26"/></g></g></g><polygon class="cls-1" points="400.99 125.28 443.74 174.65 399.41 328.21 356.66 278.84 400.99 125.28"/><polygon class="cls-1" points="402.69 123.96 445.44 173.33 400.73 328.21 357.98 278.84 402.69 123.96"/><g class="cls-2"><path class="cls-1" d="M356.66,278.84l42.75,49.37c-8.94,31-38.6,57.15-56.38,59.93l-17.79,2.79-42.75-49.37,17.78-2.78C318.06,336,347.72,309.81,356.66,278.84Z"/><g class="cls-10"><g class="cls-2"><path class="cls-1" d="M356.66,278.84l42.75,49.37c-8.94,31-38.6,57.15-56.38,59.93l-17.79,2.79-42.75-49.37,17.78-2.78c17.79-2.78,47.45-29,56.39-59.94"/></g></g></g><polygon class="cls-1" points="300.11 340.07 342.87 389.44 325.08 392.22 282.32 342.86 300.11 340.07"/><g class="cls-2"><path class="cls-1" d="M358,278.84l42.75,49.37c-4.17,14.45-13.17,29.12-25.34,41.3-11,11-23.17,18.47-32.53,19.93l-42.75-49.37c9.36-1.46,21.52-8.91,32.52-19.93C344.81,308,353.8,293.3,358,278.84Z"/><g class="cls-11"><g class="cls-2"><path class="cls-1" d="M358,278.84l42.75,49.37c-4.17,14.45-13.17,29.12-25.34,41.3-11,11-23.17,18.47-32.53,19.93l-42.75-49.37c9.36-1.46,21.52-8.91,32.52-19.93C344.81,308,353.8,293.3,358,278.84"/></g></g></g><path class="cls-1" d="M248.22,124H402.69L358,278.84c-4.18,14.46-13.17,29.12-25.35,41.3-11,11-23.16,18.47-32.52,19.93l-17.79,2.79c-1.34.19-133.21,19.21-159.54,26l-2.63.68,64.44-101.06H293.25l22.18-76.85H228.68ZM356.66,278.84,401,125.28H249.16l-18.78,65.07h86.75l-22.95,79.48h-109l-41.49,65.08L125.55,363.3l-2.76,4.34c26.72-6.94,153-25.12,159.7-26.08l17.78-2.78c17.79-2.78,47.45-29,56.39-59.94"/><path class="cls-6" d="M186.24,271.83H295.69l24.1-83.48H233l17.63-61.07H398.33l-43.6,151c-9.07,31.44-39,56-54.77,58.51l-17.78,2.78c-12.94,1.87-121.57,17.59-155,25Z"/><path class="cls-1" d="M395.67,129.28,352.81,277.73c-3.91,13.55-12.38,27.33-23.86,38.82-10,10-21.22,17-29.3,18.28l-17.74,2.77c-12.36,1.78-112.49,16.27-150.54,24L141,346.52l6-9.46,40.31-63.23H297.19l.84-2.89L321,191.46l1.47-5.11H235.7l16.47-57.07h143.5m5.32-4H249.16l-18.78,65.07h86.75l-22.95,79.48h-109l-41.49,65.08L125.55,363.3l-2.76,4.34c26.72-6.94,153-25.12,159.7-26.08l17.78-2.78c17.79-2.78,47.45-29,56.39-59.94L401,125.28Z"/></g></g></g></svg>